<svg width="15" height="16" viewBox="0 0 15 16" fill="none" xmlns="http://www.w3.org/2000/svg">
<path d="M0.252721 0.754047C0.414748 0.587706 0.634384 0.494274 0.863382 0.494274C1.09238 0.494274 1.31202 0.587706 1.47404 0.754047L7.48848 6.9363L13.5029 0.754047C13.6085 0.637123 13.7429 0.551648 13.8918 0.506626C14.0407 0.461605 14.1987 0.458704 14.3491 0.498229C14.4995 0.537754 14.6367 0.618243 14.7463 0.731213C14.8559 0.844184 14.9339 0.985455 14.972 1.14014C15.0105 1.29455 15.0078 1.45677 14.9642 1.60975C14.9206 1.76272 14.8377 1.90079 14.7242 2.00945L8.7098 8.1917L14.7242 14.3739C14.838 14.4825 14.9211 14.6206 14.9649 14.7737C15.0087 14.9268 15.0116 15.0891 14.9731 15.2437C14.9347 15.3983 14.8563 15.5394 14.7464 15.6521C14.6365 15.7647 14.4991 15.8449 14.3486 15.884C14.1984 15.9236 14.0406 15.9208 13.8918 15.876C13.7429 15.8312 13.6086 15.746 13.5029 15.6293L7.48848 9.4471L1.47404 15.6293C1.31013 15.7862 1.09346 15.8716 0.869569 15.8676C0.645679 15.8636 0.432006 15.7706 0.273461 15.608C0.115331 15.4451 0.0248198 15.2254 0.0209522 14.9953C0.0170846 14.7652 0.100161 14.5424 0.252721 14.3739L6.26715 8.1917L0.252721 2.00945C0.0908956 1.8429 0 1.61714 0 1.38175C0 1.14636 0.0908956 0.920595 0.252721 0.754047Z" fill="black"/>
</svg>
