<svg width="32" height="32" viewBox="0 0 32 32" fill="none" xmlns="http://www.w3.org/2000/svg">
<path d="M0.5 16C0.5 7.44014 7.44014 0.5 16 0.5C24.5599 0.5 31.5 7.44014 31.5 16C31.5 24.5599 24.5599 31.5 16 31.5C7.44014 31.5 0.5 24.5599 0.5 16ZM15.2162 23.3762L25.2962 13.2962C26.0128 12.5796 26.0128 11.4204 25.2962 10.7038C24.5796 9.98718 23.4204 9.98718 22.7038 10.7038L13.92 19.4876L10.6122 16.1798C9.89562 15.4632 8.73638 15.4632 8.01978 16.1798C7.30318 16.8964 7.30318 18.0556 8.01978 18.7722L12.6228 23.3753C12.6231 23.3755 12.6234 23.3758 12.6236 23.3761C12.9676 23.7215 13.4352 23.9133 13.92 23.9133C14.4059 23.9133 14.8718 23.7207 15.2162 23.3762Z" fill="#429A47" stroke="black"/>
</svg>
