<svg width="33" height="33" viewBox="0 0 33 33" fill="none" xmlns="http://www.w3.org/2000/svg">
<path d="M5.66726 27.5876C-0.385472 21.5349 -0.385472 11.72 5.66726 5.66729C11.72 -0.385447 21.5348 -0.385447 27.5876 5.66729C33.6403 11.72 33.6403 21.5349 27.5876 27.5876C21.5348 33.6403 11.72 33.6403 5.66726 27.5876ZM23.5806 20.9879L19.2201 16.6274L23.5806 12.267C24.2961 11.5515 24.2975 10.3911 23.5806 9.67422C22.8638 8.95736 21.7034 8.95876 20.9879 9.67423L16.6274 14.0347L12.2669 9.67422C11.5501 8.95736 10.3897 8.95876 9.6742 9.67423C8.95874 10.3897 8.95733 11.5501 9.6742 12.2669L14.0347 16.6274L9.6742 20.9879C8.95874 21.7034 8.95733 22.8638 9.6742 23.5807C10.3911 24.2975 11.5515 24.2961 12.2669 23.5807L16.6274 19.2202L20.9879 23.5807C21.7048 24.2975 22.8652 24.2961 23.5806 23.5807C24.2961 22.8652 24.2975 21.7048 23.5806 20.9879Z" fill="#FF0000" stroke="black"/>
</svg>
