<svg width="61" height="61" viewBox="0 0 61 61" fill="none" xmlns="http://www.w3.org/2000/svg">
<g id="&#240;&#159;&#166;&#134; icon &#34;checkmark circle 2&#34;">
<path id="Vector" d="M30.4999 5.06207C25.494 5.06207 20.6004 6.5465 16.4382 9.32765C12.2759 12.1088 9.03179 16.0617 7.11611 20.6866C5.20042 25.3115 4.69919 30.4006 5.6758 35.3103C6.65241 40.2201 9.06299 44.7299 12.6027 48.2697C16.1424 51.8094 20.6523 54.22 25.5621 55.1966C30.4718 56.1732 35.5609 55.672 40.1858 53.7563C44.8106 51.8406 48.7636 48.5965 51.5447 44.4342C54.3259 40.2719 55.8103 35.3784 55.8103 30.3725C55.8103 27.0487 55.1556 23.7574 53.8837 20.6866C52.6117 17.6158 50.7474 14.8256 48.3971 12.4753C46.0468 10.125 43.2566 8.26068 40.1858 6.98871C37.115 5.71675 33.8237 5.06207 30.4999 5.06207ZM41.3834 24.3233L29.8165 39.5096C29.5807 39.8159 29.2779 40.0641 28.9313 40.2352C28.5847 40.4063 28.2035 40.4957 27.817 40.4967C27.4325 40.4987 27.0527 40.4132 26.7062 40.2466C26.3598 40.0799 26.0558 39.8365 25.8175 39.5349L19.6417 31.6633C19.4373 31.4007 19.2866 31.1005 19.1982 30.7797C19.1099 30.4588 19.0856 30.1238 19.1267 29.7935C19.1678 29.4633 19.2736 29.1444 19.438 28.8551C19.6023 28.5658 19.8221 28.3116 20.0847 28.1072C20.615 27.6944 21.2875 27.5091 21.9544 27.5922C22.2847 27.6333 22.6035 27.7391 22.8929 27.9035C23.1822 28.0678 23.4363 28.2876 23.6408 28.5501L27.7664 33.8147L37.3337 21.1595C37.5365 20.8936 37.7896 20.6702 38.0787 20.5022C38.3678 20.3341 38.6871 20.2246 39.0185 20.1799C39.3499 20.1353 39.6868 20.1563 40.0101 20.2419C40.3333 20.3275 40.6366 20.4759 40.9025 20.6786C41.1684 20.8814 41.3917 21.1345 41.5598 21.4236C41.7279 21.7127 41.8374 22.032 41.882 22.3634C41.9267 22.6948 41.9056 23.0317 41.8201 23.355C41.7345 23.6782 41.5861 23.9815 41.3834 24.2474V24.3233Z" fill="#8E8E8E"/>
</g>
</svg>
